<?xml version="1.0" encoding="UTF-8" standalone="no"?>
<!-- Created with Inkscape (http://www.inkscape.org/) -->

<svg
   width="100pt"
   height="100pt"
   viewBox="0 0 35.277777 35.277778"
   version="1.1"
   id="svg5"
   inkscape:version="1.1.2 (0a00cf5339, 2022-02-04)"
   sodipodi:docname="logo.svg"
   xmlns:inkscape="http://www.inkscape.org/namespaces/inkscape"
   xmlns:sodipodi="http://sodipodi.sourceforge.net/DTD/sodipodi-0.dtd"
   xmlns:xlink="http://www.w3.org/1999/xlink"
   xmlns="http://www.w3.org/2000/svg"
   xmlns:svg="http://www.w3.org/2000/svg">
  <sodipodi:namedview
     id="namedview7"
     pagecolor="#797979"
     bordercolor="#000000"
     borderopacity="1"
     inkscape:pageshadow="2"
     inkscape:pageopacity="0"
     inkscape:pagecheckerboard="true"
     inkscape:document-units="pt"
     showgrid="false"
     showguides="false"
     units="pt"
     width="283.46457pt"
     inkscape:showpageshadow="false"
     inkscape:zoom="8"
     inkscape:cx="69.25"
     inkscape:cy="77.9375"
     inkscape:window-width="1920"
     inkscape:window-height="1016"
     inkscape:window-x="0"
     inkscape:window-y="27"
     inkscape:window-maximized="1"
     inkscape:current-layer="layer1"
     inkscape:snap-global="true" />
  <defs
     id="defs2">
    <linearGradient
       inkscape:collect="always"
       id="linearGradient31097">
      <stop
         style="stop-color:#0e2d62;stop-opacity:1"
         offset="0"
         id="stop31093" />
      <stop
         style="stop-color:#5981b1;stop-opacity:1"
         offset="0.59362274"
         id="stop31991" />
      <stop
         style="stop-color:#87b0c6;stop-opacity:1"
         offset="0.60002631"
         id="stop31456" />
      <stop
         style="stop-color:#bed4e0;stop-opacity:1"
         offset="1"
         id="stop31095" />
    </linearGradient>
    <inkscape:perspective
       sodipodi:type="inkscape:persp3d"
       inkscape:vp_x="-11.917257 : 25.896125 : 1"
       inkscape:vp_y="-1.8369702e-13 : 1000 : 0"
       inkscape:vp_z="124.29903 : 9.552603 : 1"
       inkscape:persp3d-origin="19.607222 : 7.9106595 : 1"
       id="perspective2006" />
    <linearGradient
       inkscape:collect="always"
       xlink:href="#linearGradient31097"
       id="linearGradient31099"
       x1="-0.70181799"
       y1="25.630255"
       x2="-0.70181799"
       y2="-0.47537598"
       gradientUnits="userSpaceOnUse"
       gradientTransform="matrix(0.95132012,0,0,1.0135106,0.66765357,0.48179859)" />
  </defs>
  <g
     inkscape:label="Layer 1"
     inkscape:groupmode="layer"
     id="layer1">
    <rect
       style="fill:url(#linearGradient31099);fill-opacity:1;stroke:none;stroke-width:0.138561;stroke-linecap:round;stroke-linejoin:round;stroke-miterlimit:4;stroke-dasharray:none;stroke-opacity:1"
       id="rect30993"
       width="35.277779"
       height="26.458334"
       x="0"
       y="5.5511151e-17" />
    <path
       style="fill:#707883;stroke:#000000;stroke-width:0.264583px;stroke-linecap:butt;stroke-linejoin:miter;stroke-opacity:1;fill-opacity:1"
       d="m 35.557096,24.927721 0.03156,10.625856 -35.73990319,-0.09437 -0.0439131,-19.976308 z"
       id="path18136"
       sodipodi:nodetypes="ccccc" />
    <path
       d="M 12.09896,25.201296 22.668508,29.481713 35.3797,27.883494 22.601733,23.99803 Z"
       style="fill:#7aa1c8;fill-opacity:1;fill-rule:evenodd;stroke:none;stroke-width:0.533333;stroke-linecap:round;stroke-linejoin:round;stroke-miterlimit:4;stroke-dasharray:none;stroke-opacity:1"
       id="path19419"
       sodipodi:nodetypes="ccccc" />
    <path
       style="fill:#8eb4ca;fill-opacity:1;stroke:#000000;stroke-width:0.135964;stroke-linecap:butt;stroke-linejoin:miter;stroke-miterlimit:4;stroke-dasharray:none;stroke-opacity:1"
       d="m 16.219774,19.074917 7.927018,-0.459693 -0.396368,6.902213 -7.542445,0.25317 z"
       id="path7181" />
    <path
       d="M 22.668508,32.394875 V 29.481713 L 35.3797,27.883494 v 2.447862 z"
       style="fill:#5f90aa;fill-opacity:1;fill-rule:evenodd;stroke:none;stroke-width:0.533333;stroke-linecap:round;stroke-linejoin:round;stroke-miterlimit:4;stroke-dasharray:none;stroke-opacity:1"
       id="path19421"
       sodipodi:nodetypes="ccccc" />
    <g
       id="g10854"
       transform="matrix(1.8999843,-0.32187929,0.32187929,1.8999843,-31.304553,-21.53106)">
      <path
         style="fill:none;stroke:#353535;stroke-width:0.105833;stroke-linecap:butt;stroke-linejoin:miter;stroke-miterlimit:4;stroke-dasharray:none;stroke-opacity:1"
         d="m 22.073405,26.931004 -0.208269,-1.488156 0.3119,-0.570266"
         id="path10850" />
      <circle
         style="fill:#d33a39;fill-opacity:1;stroke:#353535;stroke-width:0.0352778;stroke-linecap:round;stroke-linejoin:round;stroke-miterlimit:4;stroke-dasharray:none;stroke-opacity:1"
         id="circle10852"
         cx="22.243092"
         cy="24.755264"
         r="0.14552213" />
    </g>
    <path
       style="fill:#b98d55;fill-opacity:1;stroke-width:0.0492072"
       d="m 19.484344,21.836709 c 0.318785,-2.080927 0.346919,-2.548158 -0.107044,-3.607483 -0.07442,-0.02665 -0.240501,-0.150234 -0.369055,-0.274626 -0.340196,-0.329176 -0.327127,-0.443838 0.09842,-0.863427 0.51592,-0.508703 0.719987,-0.607216 1.340898,-0.647317 0.375419,-0.02425 0.577053,-0.01522 0.737519,0.03301 0.121463,0.03649 0.301793,0.05342 0.400732,0.0376 5.927458,1.459978 -2.190065,11.155461 -2.10147,5.322243 z"
       id="path1569"
       sodipodi:nodetypes="ccsssscc" />
    <path
       d="m 12.09896,27.685389 10.569548,4.709486 V 29.481713 L 12.09896,25.201296 Z"
       style="fill:#527b9c;fill-opacity:1;fill-rule:evenodd;stroke:none;stroke-width:0.533333;stroke-linecap:round;stroke-linejoin:round;stroke-miterlimit:4;stroke-dasharray:none;stroke-opacity:1"
       id="path19423"
       sodipodi:nodetypes="ccccc" />
    <g
       id="g10848"
       transform="matrix(1.9270564,0,0,1.9270564,-24.444582,-28.784094)">
      <path
         style="fill:none;stroke:#353535;stroke-width:0.105833;stroke-linecap:butt;stroke-linejoin:miter;stroke-miterlimit:4;stroke-dasharray:none;stroke-opacity:1"
         d="m 22.073405,26.931004 -0.208269,-1.488156 0.3119,-0.570266"
         id="path7348" />
      <circle
         style="fill:#d33a39;fill-opacity:1;stroke:#353535;stroke-width:0.0352778;stroke-linecap:round;stroke-linejoin:round;stroke-miterlimit:4;stroke-dasharray:none;stroke-opacity:1"
         id="path8028"
         cx="22.243092"
         cy="24.755264"
         r="0.14552213" />
    </g>
    <path
       style="fill:#b4ad99;fill-opacity:1;stroke:#000000;stroke-width:0.0352778;stroke-linecap:butt;stroke-linejoin:miter;stroke-miterlimit:4;stroke-dasharray:none;stroke-opacity:1"
       d="m 19.675928,19.074948 c -0.184407,-0.09162 -0.410829,-0.154096 -0.791453,-0.199822 -0.196909,-0.08419 -0.374885,-0.303123 -0.595568,-0.201901 0.109451,0.0221 0.226064,0.135038 0.226064,0.135038 -0.115058,-0.03415 -0.190822,0.01532 -0.27128,0.0548 0.127429,0.01971 0.271401,0.02014 0.343197,0.104691 -0.104314,0.02343 -0.16266,0.06874 -0.237622,0.106143 l 0.397525,-0.0267 0.937998,0.667838"
       id="path35437"
       sodipodi:nodetypes="ccccccccc" />
    <path
       style="fill:#000000;stroke-width:0.0492072"
       d="m 19.473884,22.117243 c 0.03294,-1.289121 0.409648,-2.711281 -0.01691,-3.762971 -0.279068,-0.174051 -0.926253,-0.649814 -0.584924,-1.049482 0.438851,-0.513858 0.667944,-0.768643 1.241717,-0.832247 l 0.591045,-0.04192 c -0.339911,0.06014 -0.729567,0.05944 -1.040554,0.218742 -0.32362,0.186539 -0.703635,0.504849 -0.739086,0.822663 0.482065,-0.06844 -0.378478,0.599124 0.568882,0.578679 0.08028,-0.0017 0.520267,-0.0089 0.368009,0.01679 -0.218116,0.03674 -0.482724,-0.02642 -0.189513,0.826324 0.0893,0.259718 0.01013,0.169838 0.03643,0.681386 0.01948,0.367271 -0.07422,1.35982 -0.235095,2.542036 z m 0.617846,-4.946231 c -0.173049,-8.49e-4 -0.06246,-0.275115 -0.01811,-0.108762 0.161179,-0.415825 0.760304,0.05403 0.254911,0.156632 -0.08263,0.03106 -0.16301,-0.01793 -0.236779,-0.04787 z m 0.306607,-0.182299 c -0.132524,-0.198282 -0.115932,0.191607 0,0 z"
       id="path1567"
       sodipodi:nodetypes="ccsccscsssccccccccc" />
    <path
       id="path2148"
       style="fill:#9f814d;fill-opacity:1;fill-rule:evenodd;stroke:#080808;stroke-width:0.0679823;stroke-linecap:round;stroke-linejoin:round;stroke-miterlimit:4;stroke-dasharray:none;stroke-opacity:1"
       d="m 0.26174335,20.154871 3.70981855,0.859725 4.8967835,-0.376 -4.0312269,-0.940792 z m -0.0169578,1.772044 3.70981845,1.17807 4.8967838,-0.62674 -4.0312271,-0.690052 z" />
    <path
       id="path2150"
       style="fill:#fff4d7;fill-opacity:1;fill-rule:evenodd;stroke:#080808;stroke-width:0.0679823;stroke-linecap:round;stroke-linejoin:round;stroke-miterlimit:4;stroke-dasharray:none;stroke-opacity:1"
       d="m 3.9715619,21.014596 v 1.81717 l 4.8967835,-0.579183 v -1.613987 z m -0.016958,2.090389 v 1.817171 l 4.8967836,-0.829924 v -1.613987 z" />
    <path
       id="path2152"
       style="fill:#bfa486;fill-opacity:1;fill-rule:evenodd;stroke:#080808;stroke-width:0.0679823;stroke-linecap:round;stroke-linejoin:round;stroke-miterlimit:4;stroke-dasharray:none;stroke-opacity:1"
       d="m 0.26174335,20.154871 3.70981855,0.859725 v 1.81717 l -3.70981855,-1.13844 z m -0.0169578,1.772044 3.70981845,1.17807 v 1.817171 L 0.24479683,23.46537 Z" />
    <path
       id="path5367"
       style="fill:none;stroke:#000000;stroke-width:0.0679823;stroke-linecap:butt;stroke-linejoin:miter;stroke-miterlimit:4;stroke-dasharray:none;stroke-opacity:1"
       d="m 3.9715619,21.014596 0.4346572,-5.217979 0.4308994,3.901187 m -4.57537515,0.457067 4.14447575,-4.358254 4.4621263,4.841979" />
    <path
       style="fill:none;stroke:#000000;stroke-width:0.0679823;stroke-linecap:butt;stroke-linejoin:miter;stroke-miterlimit:4;stroke-dasharray:none;stroke-opacity:1"
       d="M 4.4062191,15.796617 V 3.6559512 c 0.9423805,0.7940615 4.3519484,1.2382455 5.8944119,0.4179432 1.750549,0.9360635 5.037547,1.2866662 7.092155,0.5102134 1.699798,1.0996191 4.169476,1.0445583 6.268847,0.3755063"
       id="path6057"
       sodipodi:nodetypes="ccccc" />
    <path
       style="fill:#c1ced8;fill-opacity:1;stroke:#000000;stroke-width:0.135964;stroke-linecap:butt;stroke-linejoin:miter;stroke-miterlimit:4;stroke-dasharray:none;stroke-opacity:1"
       d="m 18.097271,14.375087 6.963047,-0.852414 6.607028,1.770348 -8.231646,0.705989 z"
       id="path6781" />
    <path
       style="fill:#8eb4ca;fill-opacity:1;stroke:#000000;stroke-width:0.135964;stroke-linecap:butt;stroke-linejoin:miter;stroke-miterlimit:4;stroke-dasharray:none;stroke-opacity:1"
       d="m 23.4357,15.99901 8.231646,-0.705989 V 27.537062 L 23.4357,28.498206 Z"
       id="path6914" />
    <path
       id="path15555"
       style="fill:#958668;fill-opacity:1;stroke:#000000;stroke-width:0.141111;stroke-linecap:butt;stroke-linejoin:miter;stroke-miterlimit:4;stroke-dasharray:none;stroke-opacity:1"
       d="M 25.66311,15.34455 27.334999,15.053324 27.645771,4.6962694 25.85673,4.6098019 Z m -3.400423,-0.946076 1.810777,-9.7793328 1.836739,0.055018 -0.253745,10.6634748 z"
       sodipodi:nodetypes="cccccccccc" />
    <path
       style="fill:#b6a687;fill-opacity:1;stroke:#000000;stroke-width:0.141111;stroke-linecap:butt;stroke-linejoin:miter;stroke-miterlimit:4;stroke-dasharray:none;stroke-opacity:1"
       d="M 4.5385404,3.3670923 31.339399,2.8915143 V 5.2724587 L 4.5452362,3.7191853 Z"
       id="path13998"
       sodipodi:nodetypes="ccccc" />
    <rect
       style="fill:#cfc2aa;fill-opacity:1;stroke:#353535;stroke-width:0.141111;stroke-linecap:round;stroke-linejoin:round;stroke-miterlimit:4;stroke-dasharray:none;stroke-opacity:1"
       id="rect16821"
       width="1.8916007"
       height="2.4787822"
       x="31.33003"
       y="2.8364034" />
    <path
       id="path6172"
       style="fill:#638aa3;fill-opacity:1;stroke:#000000;stroke-width:0.135964;stroke-linecap:butt;stroke-linejoin:miter;stroke-miterlimit:4;stroke-dasharray:none;stroke-opacity:1"
       d="m 18.097077,14.375277 -1.909013,3.36094 0.01992,8.03439 7.227763,2.72759 V 15.999483 Z m 0.842475,1.087451 2.566265,0.819572 0,6.889242 -4.469303,-1.602299 0,-3.495438 z"
       sodipodi:nodetypes="cccccccccccc" />
    <path
       style="fill:#b4ad99;fill-opacity:1;stroke:#000000;stroke-width:0.0281693;stroke-linecap:butt;stroke-linejoin:miter;stroke-miterlimit:4;stroke-dasharray:none;stroke-opacity:1"
       d="m 19.433233,18.319427 c -0.156626,-0.08534 -0.327302,-0.278091 -0.532167,-0.232938 0.09076,0.02965 0.174061,0.125603 0.174061,0.125603 -0.09378,-0.03904 -0.166316,-0.01293 -0.241393,0.0054 0.106574,0.03019 0.23026,0.04859 0.279293,0.118468 -0.09318,0.0038 -0.150121,0.02905 -0.220163,0.04656 l 0.345693,0.03071 0.351332,0.366693"
       id="path35437-6"
       sodipodi:nodetypes="cccccccc" />
    <path
       style="fill:#b1cbda;fill-opacity:1;stroke:none;stroke-width:0.264583px;stroke-linecap:butt;stroke-linejoin:miter;stroke-opacity:1"
       d="m 31.667346,15.293021 c -0.770447,1.912278 0.197435,7.273285 -3.841555,7.852095 -3.135319,0.06552 -3.466476,2.119241 -4.390044,5.353081 l 8.231599,-0.961135 z"
       id="path49450"
       sodipodi:nodetypes="ccccc" />
  </g>
</svg>
